<svg xmlns="http://www.w3.org/2000/svg" aria-hidden="true" style="width: 0; height: 0; position: absolute;"><symbol id="icon-close" viewBox="0 0 16 16"><path d="M2.146 2.854a.5.5 0 1 1 .708-.708L8 7.293l5.146-5.147a.5.5 0 0 1 .708.708L8.707 8l5.147 5.146a.5.5 0 0 1-.708.708L8 8.707l-5.146 5.147a.5.5 0 0 1-.708-.708L7.293 8z"></path></symbol><symbol id="icon-critical" viewBox="0 0 16 16"><path d="M8 15A7 7 0 1 1 8 1a7 7 0 0 1 0 14m0 1A8 8 0 1 0 8 0a8 8 0 0 0 0 16"></path><path d="M7.002 11a1 1 0 1 1 2 0 1 1 0 0 1-2 0M7.1 4.995a.905.905 0 1 1 1.8 0l-.35 3.507a.552.552 0 0 1-1.1 0z"></path></symbol><symbol id="icon-info" viewBox="0 0 16 16"><path d="M8 15A7 7 0 1 1 8 1a7 7 0 0 1 0 14m0 1A8 8 0 1 0 8 0a8 8 0 0 0 0 16"></path><path d="m8.93 6.588-2.29.287-.082.38.45.083c.294.07.352.176.288.469l-.738 3.468c-.194.897.105 1.319.808 1.319.545 0 1.178-.252 1.465-.598l.088-.416c-.2.176-.492.246-.686.246-.275 0-.375-.193-.304-.533zM9 4.5a1 1 0 1 1-2 0 1 1 0 0 1 2 0"></path></symbol><symbol id="icon-person-raised-hand" viewBox="0 0 16 16"><path d="M6 6.207v9.043a.75.75 0 0 0 1.5 0V10.5a.5.5 0 0 1 1 0v4.75a.75.75 0 0 0 1.5 0v-8.5a.25.25 0 1 1 .5 0v2.5a.75.75 0 0 0 1.5 0V6.5a3 3 0 0 0-3-3H6.236a1 1 0 0 1-.447-.106l-.33-.165A.83.83 0 0 1 5 2.488V.75a.75.75 0 0 0-1.5 0v2.083c0 .715.404 1.37 1.044 1.689L5.5 5c.32.32.5.754.5 1.207"></path><path d="M8 3a1.5 1.5 0 1 0 0-3 1.5 1.5 0 0 0 0 3"></path></symbol><symbol id="icon-rocket" viewBox="0 0 16 16"><path d="M12.17 9.53c2.307-2.592 3.278-4.684 3.641-6.218.21-.887.214-1.58.16-2.065a3.6 3.6 0 0 0-.108-.563 2 2 0 0 0-.078-.23V.453c-.073-.164-.168-.234-.352-.295a2 2 0 0 0-.16-.045 4 4 0 0 0-.57-.093c-.49-.044-1.19-.03-2.08.188-1.536.374-3.618 1.343-6.161 3.604l-2.4.238h-.006a2.55 2.55 0 0 0-1.524.734L.15 7.17a.512.512 0 0 0 .433.868l1.896-.271c.28-.04.592.013.955.132.232.076.437.16.655.248l.203.083c.196.816.66 1.58 1.275 2.195.613.614 1.376 1.08 2.191 1.277l.082.202c.089.218.173.424.249.657.118.363.172.676.132.956l-.271 1.9a.512.512 0 0 0 .867.433l2.382-2.386c.41-.41.668-.949.732-1.526zm.11-3.699c-.797.8-1.93.961-2.528.362-.598-.6-.436-1.733.361-2.532.798-.799 1.93-.96 2.528-.361s.437 1.732-.36 2.531Z"></path><path d="M5.205 10.787a7.6 7.6 0 0 0 1.804 1.352c-1.118 1.007-4.929 2.028-5.054 1.903-.126-.127.737-4.189 1.839-5.18.346.69.837 1.35 1.411 1.925"></path></symbol><symbol id="icon-success" viewBox="0 0 16 16"><path d="M8 15A7 7 0 1 1 8 1a7 7 0 0 1 0 14m0 1A8 8 0 1 0 8 0a8 8 0 0 0 0 16"></path><path d="m10.97 4.97-.02.022-3.473 4.425-2.093-2.094a.75.75 0 0 0-1.06 1.06L6.97 11.03a.75.75 0 0 0 1.079-.02l3.992-4.99a.75.75 0 0 0-1.071-1.05"></path></symbol><symbol id="icon-warning" viewBox="0 0 16 16"><path d="M7.938 2.016A.13.13 0 0 1 8.002 2a.13.13 0 0 1 .063.016.15.15 0 0 1 .054.057l6.857 11.667c.036.06.035.124.002.183a.2.2 0 0 1-.054.06.1.1 0 0 1-.066.017H1.146a.1.1 0 0 1-.066-.017.2.2 0 0 1-.054-.06.18.18 0 0 1 .002-.183L7.884 2.073a.15.15 0 0 1 .054-.057m1.044-.45a1.13 1.13 0 0 0-1.96 0L.165 13.233c-.457.778.091 1.767.98 1.767h13.713c.889 0 1.438-.99.98-1.767z"></path><path d="M7.002 12a1 1 0 1 1 2 0 1 1 0 0 1-2 0M7.1 5.995a.905.905 0 1 1 1.8 0l-.35 3.507a.552.552 0 0 1-1.1 0z"></path></symbol></svg>