<svg xmlns="http://www.w3.org/2000/svg" aria-hidden="true" style="width: 0; height: 0; position: absolute;"><symbol id="icon-info" viewBox="0 0 16 16"><path d="M8 16A8 8 0 1 0 8 0a8 8 0 0 0 0 16m.93-9.412-1 4.705c-.07.34.029.533.304.533.194 0 .487-.07.686-.246l-.088.416c-.287.346-.92.598-1.465.598-.703 0-1.002-.422-.808-1.319l.738-3.468c.064-.293.006-.399-.287-.47l-.451-.081.082-.381 2.29-.287zM8 5.5a1 1 0 1 1 0-2 1 1 0 0 1 0 2"></path></symbol><symbol id="icon-person-raised-hand" viewBox="0 0 16 16"><path d="M6 6.207v9.043a.75.75 0 0 0 1.5 0V10.5a.5.5 0 0 1 1 0v4.75a.75.75 0 0 0 1.5 0v-8.5a.25.25 0 1 1 .5 0v2.5a.75.75 0 0 0 1.5 0V6.5a3 3 0 0 0-3-3H6.236a1 1 0 0 1-.447-.106l-.33-.165A.83.83 0 0 1 5 2.488V.75a.75.75 0 0 0-1.5 0v2.083c0 .715.404 1.37 1.044 1.689L5.5 5c.32.32.5.754.5 1.207"></path><path d="M8 3a1.5 1.5 0 1 0 0-3 1.5 1.5 0 0 0 0 3"></path></symbol><symbol id="icon-rocket" viewBox="0 0 16 16"><path d="M12.17 9.53c2.307-2.592 3.278-4.684 3.641-6.218.21-.887.214-1.58.16-2.065a3.6 3.6 0 0 0-.108-.563 2 2 0 0 0-.078-.23V.453c-.073-.164-.168-.234-.352-.295a2 2 0 0 0-.16-.045 4 4 0 0 0-.57-.093c-.49-.044-1.19-.03-2.08.188-1.536.374-3.618 1.343-6.161 3.604l-2.4.238h-.006a2.55 2.55 0 0 0-1.524.734L.15 7.17a.512.512 0 0 0 .433.868l1.896-.271c.28-.04.592.013.955.132.232.076.437.16.655.248l.203.083c.196.816.66 1.58 1.275 2.195.613.614 1.376 1.08 2.191 1.277l.082.202c.089.218.173.424.249.657.118.363.172.676.132.956l-.271 1.9a.512.512 0 0 0 .867.433l2.382-2.386c.41-.41.668-.949.732-1.526zm.11-3.699c-.797.8-1.93.961-2.528.362-.598-.6-.436-1.733.361-2.532.798-.799 1.93-.96 2.528-.361s.437 1.732-.36 2.531Z"></path><path d="M5.205 10.787a7.6 7.6 0 0 0 1.804 1.352c-1.118 1.007-4.929 2.028-5.054 1.903-.126-.127.737-4.189 1.839-5.18.346.69.837 1.35 1.411 1.925"></path></symbol></svg>