<svg xmlns="http://www.w3.org/2000/svg" width="248" height="49" viewBox="0 0 248 49" fill="none"><path fill="#222" d="m37.953 25.433-.021-.086C33.798 15.433 25.954 7.554 16.095 3.414a3.341 3.341 0 0 0-3.742.834 3.384 3.384 0 0 0-.698 1.163L.299 36.97a3.414 3.414 0 0 0 .404 3.103c.31.447.722.811 1.201 1.064.48.253 1.013.386 1.554.387a3.51 3.51 0 0 0 1.153-.193L35.989 29.9a3.378 3.378 0 0 0 1.943-1.826 3.34 3.34 0 0 0 .02-2.642Zm-14.9 6.402c.128.132.271.248.427.343L3.885 39.317a1.235 1.235 0 0 1-1.28-.3 1.196 1.196 0 0 1-.3-1.311l5.102-14.179c.095.158.21.302.342.43a3.852 3.852 0 0 0 2.732 1.139c1.025 0 2.007-.41 2.732-1.139a3.902 3.902 0 0 0 1.132-2.75c0-1.031-.407-2.02-1.132-2.75a3.78 3.78 0 0 0-3.629-1.01l2.327-6.4a37.077 37.077 0 0 1 14.558 11.965 5.208 5.208 0 0 0-3.416 1.525 5.159 5.159 0 0 0-1.503 3.649 5.184 5.184 0 0 0 1.503 3.649Zm12.915-4.62a1.267 1.267 0 0 1-.705.667l-2.817 1.01c-.235-.494-.47-.967-.705-1.44a34.479 34.479 0 0 0-.81-1.525 41.44 41.44 0 0 0-2.135-3.394 39.881 39.881 0 0 0-16.16-13.534l1.025-2.857a1.206 1.206 0 0 1 .662-.71.968.968 0 0 1 .491-.107c.182.007.363.043.534.108 9.33 3.93 16.746 11.4 20.641 20.795v.043a1.21 1.21 0 0 1-.021.945Z"/><path fill="#222" d="M10.263 34.299a2.302 2.302 0 0 0 2.295-2.31 2.302 2.302 0 0 0-2.295-2.31 2.302 2.302 0 0 0-2.295 2.31 2.302 2.302 0 0 0 2.295 2.31ZM53.734 5.087h-4.713V.344h4.713v4.743Zm-9.99 43.257v-4.022c1.81 0 3.176-.43 4.099-1.289.956-.859 1.434-2.526 1.434-5V11.324h4.2v26.707c0 1.994-.29 3.764-.87 5.31-.58 1.547-1.588 2.768-3.023 3.661-1.4.894-3.347 1.34-5.84 1.34ZM78.16 36.846v-3.609c-1.776 1.547-3.364 2.63-4.764 3.248-1.4.585-2.801.877-4.201.877-2.254 0-3.98-.739-5.175-2.217-1.195-1.512-1.793-3.626-1.793-6.342V11.325h4.201v16.86c0 1.787.308 3.11.922 3.97.65.825 1.606 1.237 2.87 1.237.956 0 2.031-.24 3.227-.722 1.195-.48 2.68-1.443 4.457-2.887V11.326h4.2v25.52H78.16ZM97.35 33.598c3.416 0 5.123-1.168 5.123-3.506 0-.996-.307-1.787-.922-2.371-.614-.585-1.742-1.083-3.38-1.495l-2.819-.722c-2.083-.516-3.637-1.41-4.662-2.681-1.024-1.306-1.536-2.853-1.536-4.64 0-1.306.29-2.51.87-3.61.581-1.134 1.503-2.045 2.767-2.732 1.264-.687 2.903-1.031 4.918-1.031a17.4 17.4 0 0 1 3.945.464c1.366.275 2.749.756 4.149 1.444l-1.332 3.557c-2.493-1.134-4.747-1.701-6.762-1.701-2.971 0-4.457 1.117-4.457 3.35 0 .86.273 1.6.82 2.218.546.619 1.57 1.117 3.073 1.495l2.818.722c2.254.55 3.911 1.443 4.969 2.68 1.059 1.238 1.589 2.836 1.589 4.796 0 1.409-.308 2.698-.923 3.866-.58 1.135-1.536 2.028-2.868 2.681-1.298.654-3.057.98-5.277.98-1.469 0-2.937-.155-4.406-.464-1.434-.31-2.92-.808-4.457-1.495l1.127-3.506c1.469.584 2.8 1.014 3.996 1.289 1.195.275 2.408.412 3.637.412ZM127.149 35.918a13.379 13.379 0 0 1-6.096 1.444c-1.845 0-3.296-.378-4.355-1.134-1.024-.756-1.759-1.77-2.203-3.042-.41-1.272-.614-2.681-.614-4.228v-13.92h-4.406v-3.713h4.406V4.212h4.2v7.114h8.3v3.713h-8.3v13.765c0 1.788.291 3.025.871 3.713.615.653 1.554.98 2.818.98.615 0 1.247-.07 1.896-.207a11.72 11.72 0 0 0 2.202-.825l1.281 3.454ZM153.976 37.362c-1.912 0-3.893-.395-5.943-1.186v11.652h-4.2V11.325h3.996v3.61c1.571-1.513 3.005-2.578 4.303-3.197 1.298-.619 2.63-.928 3.996-.928 2.698 0 4.764 1.031 6.199 3.093 1.468 2.063 2.203 4.967 2.203 8.714v2.99c0 3.575-.906 6.427-2.716 8.558-1.776 2.132-4.388 3.197-7.838 3.197Zm1.127-22.582c-.99 0-2.015.258-3.074.773-1.058.516-2.39 1.564-3.996 3.145V32.31c.991.447 1.947.774 2.869.98.922.172 1.828.258 2.716.258 2.322 0 3.995-.705 5.02-2.114 1.025-1.444 1.537-3.386 1.537-5.826v-2.99c0-2.681-.427-4.658-1.281-5.93-.819-1.271-2.083-1.907-3.791-1.907ZM176.756 5.087h-4.713V.344h4.713v4.743Zm-.256 31.76h-4.201V11.324h4.201v25.521ZM200.465 33.186v3.66h-17.623v-3.3l12.141-18.508h-11.629v-3.713h16.599v3.352L187.76 33.186h12.705ZM221.577 33.186v3.66h-17.623v-3.3l12.142-18.508h-11.629v-3.713h16.598v3.352l-12.193 18.509h12.705ZM246.327 37.104c-1.571 0-2.834-.36-3.791-1.082-.922-.722-1.571-1.616-1.947-2.681-1.673 1.477-3.193 2.526-4.559 3.145-1.366.584-2.732.876-4.098.876-2.22 0-3.86-.722-4.919-2.165-1.058-1.444-1.588-3.214-1.588-5.31 0-1.41.257-2.665.769-3.765s1.383-1.959 2.613-2.577c1.229-.654 2.886-.98 4.969-.98.922 0 1.93.069 3.022.206 1.093.103 2.203.24 3.33.413v-3.455c0-1.924-.427-3.23-1.28-3.918-.82-.722-2.032-1.083-3.638-1.083-2.186 0-4.627.602-7.326 1.805l-1.332-3.506c1.571-.722 3.074-1.272 4.509-1.65a17.017 17.017 0 0 1 4.354-.567c2.391 0 4.218.395 5.482 1.186 1.264.79 2.134 1.839 2.613 3.145.478 1.306.717 2.732.717 4.279v11.033c0 .79.154 1.461.461 2.011.307.516.922.773 1.844.773h.564v3.867h-.769Zm-16.752-7.27c0 1.17.273 2.114.82 2.836.546.722 1.332 1.083 2.356 1.083.888 0 1.913-.258 3.074-.773 1.161-.55 2.596-1.633 4.303-3.248v-3.249c-2.322-.378-4.371-.567-6.147-.567-1.571 0-2.698.327-3.381.98-.683.653-1.025 1.633-1.025 2.939Z"/></svg>