<svg xmlns="http://www.w3.org/2000/svg" width="724" height="695" fill="none"><path fill="url(#a)" fill-opacity=".3" d="M135.214 693.239c-.164-.094-.319-.329-.28-.524-.006-.366.291-.63.604-.667 145.393-4.2 311.828-16.129 447.776-105.365 54.332-35.663 93.463-77.492 116.341-124.423 26.982-55.299 28.664-118.168 4.354-163.978-10.983-20.778-27.86-39.662-50.006-56.221-68.338-50.917-164.63-59.212-245.522-21.254-.289.124-.734.012-.826-.332-.178-.32-.045-.678.276-.856 39.535-18.598 83.709-26.465 127.789-22.706 44.221 3.767 85.397 18.979 119.052 44.069 22.31 16.653 39.264 35.654 50.348 56.635 24.489 46.131 22.813 109.367-4.335 165.078-22.972 47.095-62.228 89.141-116.764 124.905-136.269 89.413-302.93 101.356-448.464 105.548-.094.163-.234.154-.343.091Z"/><path fill="url(#b)" fill-opacity=".3" d="M135.214 693.239a.572.572 0 0 1-.311-.469c-.038-.312.236-.662.549-.699 125.208-14.331 269.096-37.463 392.366-131.19 49.248-37.437 85.866-79.701 108.904-125.524 27.134-54.051 33.09-113.364 15.456-154.74-7.946-18.734-21.068-35.305-38.882-49.29-55.039-43.094-137.164-43.935-209.355-2.404-.32.177-.71.097-.889-.223-.178-.321-.045-.679.222-.888 35.293-20.321 73.903-30.893 111.445-30.547 37.823.364 72.141 11.835 99.26 33.005 18.032 14.111 31.254 30.886 39.301 49.823 17.727 41.72 11.778 101.399-15.49 155.808-23.078 46.018-59.813 88.359-109.242 125.982-123.481 93.967-267.596 117.114-392.976 131.491-.054-.032-.249-.072-.358-.135Z"/><path fill="url(#c)" fill-opacity=".3" d="M135.214 693.239a.57.57 0 0 1-.288-.383.606.606 0 0 1 .44-.762c105.046-24.375 226.293-58.548 336.681-156.665 44.164-39.212 78.23-81.716 101.343-126.409 27.223-52.693 37.421-108.396 26.462-145.337-4.963-16.722-14.275-30.949-27.843-42.337-41.662-35.153-109.634-28.766-173.062 16.228-.266.209-.657.129-.866-.137-.21-.267-.131-.656.135-.865 63.898-45.303 132.432-51.656 174.585-16.22 13.7 11.538 23.222 26.031 28.231 42.924 10.997 37.254.837 93.269-26.575 146.288-23.175 44.802-57.335 87.469-101.617 126.758-110.622 98.271-232.073 132.545-337.205 156.943-.117.077-.258.069-.421-.026Z"/><path fill="url(#d)" fill-opacity=".3" d="M135.214 693.239c-.109-.063-.187-.18-.265-.298-.124-.289.042-.701.331-.824 84.609-34.07 183.05-78.872 280.203-180.64 38.837-40.692 70.257-83.273 93.286-126.562 27.241-51.087 41.47-102.939 37.123-135.338-1.956-14.623-7.63-26.459-16.867-35.274-28.402-27.135-82.019-13.62-136.518 34.425-.266.209-.688.183-.898-.083-.209-.266-.216-.633.082-.896 54.977-48.495 109.241-61.998 138.181-34.408 9.423 8.995 15.221 21.121 17.247 36.001 4.362 32.625-9.884 84.758-37.251 136.063-23.147 43.366-54.543 86.033-93.498 126.802-97.332 101.954-195.891 146.833-280.618 180.98a.47.47 0 0 1-.538.052Z"/><path fill="url(#e)" fill-opacity=".3" d="M135.214 693.239c-.055-.031-.164-.094-.187-.18-.21-.266-.131-.656.136-.865 63.976-43.299 139.273-98.27 222.664-202.905 33.376-41.814 61.875-84.122 84.751-125.759 26.984-49.131 45.056-96.806 47.227-124.499.933-12.447-1.049-21.861-5.986-28.048-3.544-4.441-8.4-6.737-14.535-6.942-19.734-.584-51.521 21.472-85.007 58.942-.212.241-.579.246-.906.057a.652.652 0 0 1-.059-.905c34.215-38.354 65.524-59.96 85.992-59.388 6.502.199 11.771 2.661 15.526 7.368 5.146 6.453 7.251 16.157 6.271 28.939-2.156 27.919-20.322 75.757-47.401 125.052-22.907 41.691-51.437 84.054-84.845 125.921-83.54 104.767-158.868 159.793-222.962 203.169-.18.186-.461.169-.679.043Z"/><path fill="url(#f)" fill-opacity=".3" d="m135.214 693.239-.109-.063a.651.651 0 0 1-.06-.905c42.59-51.221 93.715-114.707 162.071-219.752 27.264-41.933 52.363-83.012 74.551-122.072 26.154-46.056 47.596-88.738 56.035-111.288 3.758-10.163 5.296-17.11 4.543-20.592-.376-1.741-1.211-1.932-1.547-1.981-5.016-1.01-23.774 16.743-60 70.042-.157.272-.673.409-.883.143-.327-.189-.388-.587-.145-.882 31.008-45.647 53.941-72.016 61.243-70.557.921.169 2.066.83 2.504 2.969.791 3.794-.732 10.967-4.585 21.293-8.415 22.636-29.944 65.341-56.129 111.451-22.219 39.115-47.263 80.225-74.582 122.126-68.388 105.1-119.544 168.641-162.134 219.862a.563.563 0 0 1-.773.206Z"/><path fill="url(#g)" fill-opacity=".3" d="M135.214 693.239c-.273-.157-.397-.446-.294-.75 23.095-62.548 52.49-138.653 109.338-250.343 22.746-44.686 45.772-86.962 68.474-125.652 26.84-45.733 53.113-85.698 68.455-104.336 7.016-8.499 12.498-13.46 16.148-14.617 2.071-.69 3.239.057 3.823.684 4.969 5.626-6.456 38.639-30.483 88.317a.685.685 0 0 1-.837.315l-.054-.031c-.273-.158-.42-.533-.263-.805 28.045-58.022 34.009-83.089 30.658-86.983-.21-.266-.793-.893-2.489-.349-3.424 1.143-8.67 5.949-15.561 14.231-15.365 18.551-41.521 58.439-68.361 104.172-22.702 38.69-45.782 80.935-68.442 125.598-56.762 111.667-86.18 187.686-109.276 250.234-.102.304-.509.504-.813.401.031-.054.031-.054-.023-.086Z"/><path fill="url(#h)" fill-opacity=".3" d="M135.214 693.239c-.219-.126-.319-.329-.303-.61 5.486-77.14 15.476-169.889 64.468-294.675 19.555-49.866 41.977-95.755 66.629-136.439 29.12-48.043 61.498-87.749 84.598-103.576 10.579-7.24 20.036-10.268 28.197-9.038 5.954.898 10.752 4.176 14.144 9.762 10.707 17.353 7.618 55.325-8.436 104.165-.102.304-.454.536-.813.401-.359-.134-.537-.455-.403-.813 15.706-47.735 18.914-86.291 8.541-103.089-3.245-5.211-7.661-8.268-13.248-9.172-7.826-1.181-16.97 1.81-27.283 8.841-22.897 15.726-55.18 55.269-84.206 103.149-24.589 40.575-47.011 86.464-66.535 136.276-48.866 124.568-58.879 217.231-64.388 294.286-.048.335-.346.598-.681.549-.086.023-.172.046-.281-.017Z"/><path fill="url(#i)" fill-opacity=".3" d="M135.214 693.239a.572.572 0 0 1-.311-.469c-12.877-90.427-23.204-198.243 16.425-333.513 15.83-54.12 37.082-102.643 63.065-144.373 30.748-49.352 68.773-87.756 99.263-100.259 13.9-5.686 27.3-6.728 39.801-3.065 38.418 11.299 53.801 65.014 39.293 136.873-.048.335-.4.567-.736.518-.335-.048-.568-.401-.52-.736 14.412-71.188-.668-124.293-38.447-135.44-12.252-3.592-25.339-2.588-38.982 3.029-30.231 12.435-68.022 50.684-98.644 99.819-25.92 41.62-47.141 90.089-62.908 144.101-39.558 135.02-29.191 242.642-16.337 332.983.038.312-.182.692-.549.698-.109-.063-.304-.103-.413-.166Z"/><path fill="url(#j)" fill-opacity=".3" d="M135.214 693.239a.682.682 0 0 1-.288-.383c-31.437-103.246-62.535-225.594-32.686-370.5 11.939-57.963 31.755-108.911 58.967-151.382 32.179-50.194 75.641-87.056 113.402-96.158 17.221-4.132 34.447-3.11 51.289 2.987 51.819 18.818 80.616 81.293 73.3 159.336-.048.335-.346.598-.681.549-.336-.048-.6-.346-.552-.681 7.252-77.427-21.18-139.4-72.478-157.99-16.592-6.025-33.623-7.007-50.585-2.944-37.473 8.98-80.613 45.663-112.636 95.585-27.148 42.362-46.925 93.116-58.801 150.97-29.778 144.657 1.251 266.747 32.664 369.907a.605.605 0 0 1-.439.761c-.118.078-.313.038-.476-.057Z"/><path fill="url(#k)" fill-opacity=".3" d="M135.214 693.239c-.109-.063-.187-.18-.265-.298-50.24-115.77-102.25-252.15-82.614-406.072 7.838-61.564 26.17-114.602 54.484-157.597 33.43-50.85 82.14-85.843 127.188-91.32 20.423-2.5 41.562.564 62.798 9.125 31.98 12.878 59.042 36.917 78.214 69.46 19.125 32.37 29.251 71.007 29.322 111.819.007.366-.291.63-.657.636-.367.005-.632-.292-.638-.659-.13-83.284-42.006-153.963-106.76-180.105-20.987-8.49-41.93-11.512-62.127-9.027-44.65 5.416-93.039 40.231-126.281 90.755-28.165 42.863-46.426 95.653-54.255 157.076-19.59 153.587 32.376 289.795 82.569 405.394.124.289-.041.701-.33.825-.258.068-.485.083-.648-.012Z"/><path fill="url(#l)" fill-opacity=".3" d="M135.214 693.239c-.109-.063-.219-.126-.21-.266C65.867 564.842-7.121 414.537 2.179 251.818c3.704-65.111 20.49-120.131 49.789-163.573C86.64 36.879 140.567 3.81 192.762 1.952c23.681-.837 48.645 4.29 74.222 15.285 38.501 16.57 72.318 44.654 97.69 81.067 25.241 36.264 40.515 78.454 44.231 122.022.006.367-.237.662-.604.667-.312.038-.663-.237-.701-.549-7.518-89.002-62.957-168.309-141.167-202.001C241.051 7.487 216.282 2.4 192.742 3.245 140.968 5.13 87.395 37.967 52.91 89.006 23.736 132.232 7.045 187.088 3.326 251.973-5.98 414.325 66.93 564.512 135.966 692.44c.178.321.044.679-.276.856-.032.055-.258.069-.476-.057Z"/><path fill="url(#m)" fill-opacity=".3" d="M135.214 693.239c-.109-.063-.219-.126-.21-.266C65.867 564.842-7.121 414.537 2.179 251.818c3.096-53.855 15.225-101.189 36.142-140.692.189-.327.532-.419.86-.23a.63.63 0 0 1 .231.859c-20.822 39.341-32.944 86.534-36 140.194-9.298 162.212 63.48 312.251 132.461 440.148 145.253-4.209 311.579-16.201 447.41-105.359 44.943-29.477 79.753-63.571 103.411-101.274.157-.272.587-.387.86-.229.272.157.388.587.231.859-23.753 37.866-58.68 72.037-103.772 101.646-136.269 89.413-302.93 101.356-448.464 105.548a.48.48 0 0 1-.335-.049Z"/><path fill="url(#n)" fill-opacity=".3" d="M169.297 634.205c-.109-.063-.187-.18-.265-.297-6.906-14.362-14.101-29.107-21.016-43.329-35.568-72.913-72.315-148.32-97.92-221.865-9.525-27.336-17.125-53.343-22.563-77.302-5.53-24.304-8.748-46.692-9.978-68.368-1.828-33.991 1.969-64.372 11.262-90.419 2.695-7.439 5.858-14.681 9.45-21.531.188-.326.532-.418.86-.229a.63.63 0 0 1 .23.859c-3.614 6.764-6.745 13.951-9.41 21.336-9.253 25.852-13.041 56.093-11.205 89.944 1.207 21.589 4.456 43.923 9.963 68.141 5.438 23.96 12.984 49.935 22.485 77.185 25.637 73.49 62.36 148.812 97.874 221.693 6.838 14.104 13.986 28.678 20.869 42.954 15.805-1.177 31.946-2.305 47.579-3.435 80.875-5.685 164.553-11.565 240.984-26.054 28.349-5.396 54.672-11.817 78.087-19.12 23.726-7.339 44.638-15.724 63.993-25.442 30.202-15.281 54.498-33.682 72.291-54.676 5.063-6 9.722-12.306 13.804-18.872.157-.272.587-.387.86-.229.272.157.388.587.231.859-4.082 6.566-8.772 12.926-13.922 18.949-17.856 21.103-42.354 39.604-72.674 54.962-19.386 9.773-40.353 18.126-64.165 25.489-23.469 7.271-49.824 13.746-78.259 19.165-76.549 14.567-160.227 20.447-241.156 26.1-15.773 1.122-32.054 2.241-48 3.409-.039.195-.18.186-.289.123Z"/><path fill="url(#o)" fill-opacity=".3" d="M203.412 575.117c-.11-.063-.187-.18-.265-.298-23.226-54.615-50.432-109.642-76.817-162.817-16.072-32.494-31.292-63.19-45.39-93.311-12.145-25.946-21.905-48.339-29.885-68.398-8.413-21.326-14.386-39.573-18.132-55.882-6.106-26.958-6.397-49.252-.806-68.005a80.316 80.316 0 0 1 6.173-15.226c.188-.327.532-.418.86-.229a.63.63 0 0 1 .23.859c-2.506 4.719-4.553 9.776-6.1 14.976-5.498 18.59-5.222 40.658.815 67.358 3.723 16.224 9.641 34.439 18.086 55.71 7.98 20.06 17.74 42.453 29.83 68.368 14.098 30.12 29.263 60.785 45.336 93.279 26.307 53.057 53.467 107.912 76.67 162.442 58.771-7.202 119.911-11.077 178.959-14.854 36.177-2.328 70.371-4.495 103.505-7.347 28.542-2.455 52.815-5.199 74.123-8.35 22.643-3.322 41.377-7.305 57.289-12.192 26.196-8.09 45.445-18.885 58.742-32.972 3.729-3.941 7.085-8.242 9.95-12.827.157-.272.587-.387.86-.229.273.157.388.587.231.859a80.361 80.361 0 0 1-10.131 13.013c-13.531 14.241-32.898 25.114-59.297 33.304-15.966 4.856-34.786 8.862-57.461 12.238-21.362 3.119-45.635 5.863-74.209 8.373-33.134 2.851-67.327 5.019-103.504 7.346-59.189 3.769-120.502 7.69-179.358 14.915-.032.054-.195-.04-.304-.103Z"/><path fill="url(#p)" fill-opacity=".3" d="M237.495 516.083c-.109-.063-.241-.212-.265-.298-26.507-72.107-66.311-150.658-125.36-247.139a3259.22 3259.22 0 0 0-37.207-59.495c-9.909-15.587-19.304-30.298-26.286-43.397-10.534-19.793-14.669-34.295-12.983-45.654a27.86 27.86 0 0 1 2.927-8.974c.189-.327.532-.419.86-.23a.63.63 0 0 1 .231.859c-1.399 2.675-2.33 5.547-2.793 8.617-1.63 10.884 2.551 25.558 12.86 44.858 6.928 13.068 16.323 27.778 26.209 43.279a3448.776 3448.776 0 0 1 37.23 59.581c58.917 96.333 98.729 174.743 125.237 246.85 75.669-13.043 163.566-17.792 276.396-14.966 23.739.574 47.375 1.453 70.214 2.451 18.422.842 35.805 1.592 50.585 1.058 21.815-.754 36.613-4.47 45.279-11.292 2.427-1.936 4.448-4.178 6.065-6.727.157-.272.587-.387.86-.229.272.157.388.587.231.859a27.893 27.893 0 0 1-6.308 7.022c-8.963 7.085-23.536 10.787-46.03 11.583-14.835.504-32.272-.278-50.725-1.065-22.808-1.053-46.421-1.846-70.159-2.421-113.025-2.865-200.954 1.939-276.709 15.005-.086.022-.196-.04-.359-.135Z"/><path fill="url(#q)" fill-opacity=".3" d="M271.578 457.049a.68.68 0 0 1-.287-.384c-24.548-79.028-71.397-165.781-128.492-238.064-15.795-20.001-30.803-37.082-44.497-50.647-12.682-12.545-23.876-22.127-34.385-30.879l-2.981-2.519c-12.012-10.054-19.968-16.679-22.14-20.473-.746-1.228-.883-2.25-.466-3.098.188-.326.532-.418.859-.229a.63.63 0 0 1 .231.859c-.282.49.066 1.271.454 1.858 2.073 3.59 10.379 10.49 21.853 20.089l2.982 2.52c10.455 8.72 21.757 18.365 34.44 30.91 13.748 13.596 28.756 30.677 44.606 50.709 57.094 72.283 103.92 158.951 128.554 237.956 80.738-18.169 179.207-20.95 270.353-7.647 25.273 3.71 47.57 8.168 66.25 13.222 17.096 4.647 31.155 9.644 43.989 14.37l3.727 1.354c14.05 5.137 24.124 8.85 28.324 8.88.648.012 1.499-.077 1.837-.535.157-.272.586-.387.859-.23.273.158.388.587.231.859-.471.817-1.479 1.177-2.915 1.146-4.372.015-14.087-3.562-28.715-8.96l-3.727-1.354c-12.833-4.726-26.838-9.692-43.88-14.307-18.594-5.077-40.89-9.535-66.109-13.214-91.201-13.334-189.756-10.53-270.416 7.757-.235.154-.375.146-.539.051Z"/><path fill="url(#r)" fill-opacity=".3" d="M305.661 398.015a.572.572 0 0 1-.287-.384C284.283 314.505 235.025 228.9 173.698 168.61c-18.23-17.925-35.646-31.97-51.82-41.743-14.046-8.545-28.233-14.705-42.398-18.385-16.302-4.261-29.971-4.391-36.582-.372-1.58.974-2.724 2.199-3.486 3.645-.188.327-.532.419-.86.23-.24-.212-.42-.533-.23-.859.856-1.61 2.18-3.022 3.963-4.096 6.877-4.227 20.945-4.158 37.55.206 14.274 3.743 28.571 9.966 42.703 18.488 16.228 9.805 33.753 23.913 52.006 41.924 61.382 60.322 110.585 145.895 131.848 228.975 82.613-23.18 181.346-23.27 264.254-.358 24.779 6.834 45.705 14.925 62.31 24.077 14.424 7.892 27.039 17.279 37.362 27.737 12.083 12.199 19.177 24.347 18.954 32.417-.038 2.081-.568 3.88-1.565 5.48-.157.272-.586.387-.859.23-.273-.158-.388-.587-.231-.859.871-1.384 1.306-3.019 1.414-4.843.174-7.734-6.773-19.507-18.614-31.494-10.3-10.372-22.752-19.665-37.121-27.526-16.495-9.088-37.367-17.148-62.06-24.005-82.931-22.998-181.673-22.768-264.208.53-.008.141-.203.101-.367.006Z"/><path fill="url(#s)" fill-opacity=".3" d="M339.745 338.981a.711.711 0 0 1-.342-.415c-16.79-85.286-68.465-169.602-134.83-220.033-20.619-15.677-40.496-26.718-59.055-32.862-16.953-5.653-33.926-7.618-50.435-5.977-20.711 2.116-38.061 9.873-48.759 21.978a49.09 49.09 0 0 0-6.912 10.083c-.188.327-.532.419-.86.23-.24-.212-.42-.533-.23-.859 1.972-3.795 4.372-7.197 7.092-10.27 10.877-12.291 28.493-20.257 49.571-22.38 16.681-1.685 33.818.374 50.911 6.035 18.755 6.185 38.741 17.289 59.438 33.083 66.419 50.462 118.125 134.724 135.165 220.081 82.441-27.922 181.266-25.274 258.178 7.016 23.995 10.081 43.636 21.783 58.369 34.932 13.504 12.004 23.77 25.839 30.681 41.074 8.702 19.315 10.611 38.554 5.405 54.12-1.301 3.891-3.133 7.694-5.347 11.277-.157.272-.587.386-.859.229-.273-.158-.389-.587-.232-.859 2.183-3.528 3.952-7.222 5.222-11.059 5.134-15.317 3.231-34.19-5.346-53.216-6.834-15.117-17.021-28.834-30.393-40.689-14.601-13.001-34.156-24.726-57.988-34.713-76.857-32.258-175.713-34.851-257.968-6.749-.118.078-.313.038-.476-.057Z"/><path fill="url(#t)" fill-opacity=".3" d="M686.926 486.323a.63.63 0 0 1-.232-.859c3.548-5.641 6.597-11.426 9.076-17.105 10.008-22.877 12.824-49.544 8.039-75.013-3.702-19.911-11.713-38.029-23.72-53.885-12.683-16.826-30.735-32.037-53.533-45.199a61.875 61.875 0 0 1-.436-.252c-71.784-41.299-170.584-46.761-251.762-13.974a.656.656 0 0 1-.872-.504c-12.195-86.695-66.357-169.473-137.983-211.044l-.436-.252c-22.853-13.194-44.997-21.19-65.91-23.762-19.79-2.502-39.463-.294-58.526 6.4-24.504 8.56-46.136 24.363-60.913 44.415-3.678 4.986-7.163 10.518-10.275 16.412-.188.326-.532.418-.86.229a.63.63 0 0 1-.23-.859c3.143-5.948 6.66-11.535 10.369-16.575C63.71 74.204 85.546 58.3 110.252 49.64c19.267-6.795 39.135-8.962 59.151-6.474 21.109 2.61 43.417 10.702 66.378 23.959l.436.252c35.42 20.522 67.058 51.121 91.584 88.496 24.526 37.374 40.721 79.733 46.898 122.691 40.206-16.107 85.072-23.284 129.703-20.731 44.631 2.553 86.949 14.653 122.432 35.066l.436.252c22.961 13.257 41.091 28.584 53.938 45.505 12.108 16.059 20.165 34.349 23.914 54.432 4.854 25.727 1.998 52.589-8.081 75.715-2.51 5.733-5.591 11.572-9.17 17.268-.243.295-.618.441-.945.252Z"/><path fill="url(#u)" fill-opacity=".3" d="M38.553 111.985a.63.63 0 0 1-.232-.859c4.354-8.296 8.829-15.796 13.647-22.881C86.64 36.879 140.567 3.81 192.762 1.952c23.681-.837 48.645 4.29 74.222 15.285 38.501 16.57 72.318 44.654 97.69 81.067 25.085 36.029 40.353 77.852 44.117 121.086 39.346-18.272 83.231-26.016 126.921-22.337 44.221 3.767 85.397 18.979 119.052 44.069 22.309 16.653 39.263 35.655 50.348 56.636 24.488 46.131 22.812 109.366-4.335 165.077-3.75 7.629-7.976 15.2-12.992 23.259-.157.272-.587.386-.859.229-.273-.158-.389-.587-.232-.859 4.985-8.004 9.265-15.544 12.929-23.15 26.982-55.299 28.665-118.167 4.355-163.978-10.984-20.778-27.86-39.662-50.006-56.22-68.339-50.918-164.631-59.212-245.522-21.254-.375.146-.866-.138-.873-.504-7.518-89.002-62.957-168.309-141.167-202.001C241.028 7.402 216.259 2.315 192.719 3.16 140.945 5.044 87.372 37.88 52.887 88.92c-4.732 7.061-9.176 14.507-13.584 22.771.007.367-.392.427-.75.293Z"/><path fill="url(#v)" fill-opacity=".3" d="M135.214 693.239c-.328-.189-.42-.532-.232-.859l234.657-406.436c.188-.327.532-.418.859-.229.327.189.42.532.231.858L136.073 693.01a.63.63 0 0 1-.859.229Z"/><path fill="url(#w)" fill-opacity=".3" d="M134.742 694.055c-.272-.157-.459-.338-.583-.627C64.945 565.179-8.089 414.703 1.25 251.789c3.744-65.306 20.538-120.466 49.93-164.07C85.98 36.134 140.227 2.887 192.735.992 216.555.165 241.66 5.3 267.346 16.358c78.296 33.67 133.946 112.736 142.262 201.617 81.13-37.239 177.343-28.555 245.736 22.394 22.419 16.716 39.505 35.866 50.612 56.933 24.613 46.42 22.975 109.968-4.329 165.951-23.067 47.258-62.44 89.382-117.125 125.277-136.472 89.513-303.306 101.502-448.925 105.717-.281-.017-.562-.034-.835-.192ZM288.586 30.58c-7.254-4.188-14.759-7.941-22.484-11.313-25.272-10.891-49.901-15.97-73.27-15.17-51.461 1.846-104.745 34.56-139.073 85.327C24.68 132.486 8.083 187.18 4.372 251.923-4.9 413.714 67.59 563.369 136.47 691.063c144.972-4.226 310.908-16.298 446.355-105.17 54.184-35.532 93.196-77.283 116.035-124.02 26.856-55.081 28.514-117.529 4.359-163.104-10.937-20.607-27.704-39.428-49.773-55.869-67.988-50.642-163.968-58.974-244.57-21.139-.899.423-2.153-.301-2.236-1.291-6.706-79.828-52.169-151.852-118.054-189.89Z"/><defs><linearGradient id="a" x1="462.093" x2="134.742" y1="127.067" y2="694.055" gradientUnits="userSpaceOnUse"><stop stop-color="#6B2D92"/><stop offset="1" stop-color="#200E2C"/></linearGradient><linearGradient id="b" x1="462.093" x2="134.742" y1="127.067" y2="694.055" gradientUnits="userSpaceOnUse"><stop stop-color="#6B2D92"/><stop offset="1" stop-color="#200E2C"/></linearGradient><linearGradient id="c" x1="462.093" x2="134.742" y1="127.067" y2="694.055" gradientUnits="userSpaceOnUse"><stop stop-color="#6B2D92"/><stop offset="1" stop-color="#200E2C"/></linearGradient><linearGradient id="d" x1="462.093" x2="134.742" y1="127.067" y2="694.055" gradientUnits="userSpaceOnUse"><stop stop-color="#6B2D92"/><stop offset="1" stop-color="#200E2C"/></linearGradient><linearGradient id="e" x1="462.093" x2="134.742" y1="127.067" y2="694.055" gradientUnits="userSpaceOnUse"><stop stop-color="#6B2D92"/><stop offset="1" stop-color="#200E2C"/></linearGradient><linearGradient id="f" x1="462.093" x2="134.742" y1="127.067" y2="694.055" gradientUnits="userSpaceOnUse"><stop stop-color="#6B2D92"/><stop offset="1" stop-color="#200E2C"/></linearGradient><linearGradient id="g" x1="462.093" x2="134.742" y1="127.067" y2="694.055" gradientUnits="userSpaceOnUse"><stop stop-color="#6B2D92"/><stop offset="1" stop-color="#200E2C"/></linearGradient><linearGradient id="h" x1="462.093" x2="134.742" y1="127.067" y2="694.055" gradientUnits="userSpaceOnUse"><stop stop-color="#6B2D92"/><stop offset="1" stop-color="#200E2C"/></linearGradient><linearGradient id="i" x1="462.093" x2="134.742" y1="127.067" y2="694.055" gradientUnits="userSpaceOnUse"><stop stop-color="#6B2D92"/><stop offset="1" stop-color="#200E2C"/></linearGradient><linearGradient id="j" x1="462.093" x2="134.742" y1="127.067" y2="694.055" gradientUnits="userSpaceOnUse"><stop stop-color="#6B2D92"/><stop offset="1" stop-color="#200E2C"/></linearGradient><linearGradient id="k" x1="462.093" x2="134.742" y1="127.067" y2="694.055" gradientUnits="userSpaceOnUse"><stop stop-color="#6B2D92"/><stop offset="1" stop-color="#200E2C"/></linearGradient><linearGradient id="l" x1="462.093" x2="134.742" y1="127.067" y2="694.055" gradientUnits="userSpaceOnUse"><stop stop-color="#6B2D92"/><stop offset="1" stop-color="#200E2C"/></linearGradient><linearGradient id="m" x1="462.093" x2="134.742" y1="127.067" y2="694.055" gradientUnits="userSpaceOnUse"><stop stop-color="#6B2D92"/><stop offset="1" stop-color="#200E2C"/></linearGradient><linearGradient id="n" x1="462.093" x2="134.742" y1="127.067" y2="694.055" gradientUnits="userSpaceOnUse"><stop stop-color="#6B2D92"/><stop offset="1" stop-color="#200E2C"/></linearGradient><linearGradient id="o" x1="462.093" x2="134.742" y1="127.067" y2="694.055" gradientUnits="userSpaceOnUse"><stop stop-color="#6B2D92"/><stop offset="1" stop-color="#200E2C"/></linearGradient><linearGradient id="p" x1="462.093" x2="134.742" y1="127.067" y2="694.055" gradientUnits="userSpaceOnUse"><stop stop-color="#6B2D92"/><stop offset="1" stop-color="#200E2C"/></linearGradient><linearGradient id="q" x1="462.093" x2="134.742" y1="127.067" y2="694.055" gradientUnits="userSpaceOnUse"><stop stop-color="#6B2D92"/><stop offset="1" stop-color="#200E2C"/></linearGradient><linearGradient id="r" x1="462.093" x2="134.742" y1="127.067" y2="694.055" gradientUnits="userSpaceOnUse"><stop stop-color="#6B2D92"/><stop offset="1" stop-color="#200E2C"/></linearGradient><linearGradient id="s" x1="462.093" x2="134.742" y1="127.067" y2="694.055" gradientUnits="userSpaceOnUse"><stop stop-color="#6B2D92"/><stop offset="1" stop-color="#200E2C"/></linearGradient><linearGradient id="t" x1="462.093" x2="134.742" y1="127.067" y2="694.055" gradientUnits="userSpaceOnUse"><stop stop-color="#6B2D92"/><stop offset="1" stop-color="#200E2C"/></linearGradient><linearGradient id="u" x1="462.093" x2="134.742" y1="127.067" y2="694.055" gradientUnits="userSpaceOnUse"><stop stop-color="#6B2D92"/><stop offset="1" stop-color="#200E2C"/></linearGradient><linearGradient id="v" x1="462.093" x2="134.742" y1="127.067" y2="694.055" gradientUnits="userSpaceOnUse"><stop stop-color="#6B2D92"/><stop offset="1" stop-color="#200E2C"/></linearGradient><linearGradient id="w" x1="462.093" x2="134.742" y1="127.067" y2="694.055" gradientUnits="userSpaceOnUse"><stop stop-color="#6B2D92"/><stop offset="1" stop-color="#200E2C"/></linearGradient></defs></svg>
